<svg width="31" height="39" viewBox="0 0 31 39" fill="none" xmlns="http://www.w3.org/2000/svg">
<g id="bx-calculator.svg">
<path id="Vector" d="M24.0138 3.25H6.3194C4.92533 3.25 3.79163 4.70762 3.79163 6.5V32.5C3.79163 34.2924 4.92533 35.75 6.3194 35.75H24.0138C25.4079 35.75 26.5416 34.2924 26.5416 32.5V6.5C26.5416 4.70762 25.4079 3.25 24.0138 3.25ZM6.3194 32.5V6.5H24.0138L24.0151 32.5H6.3194Z" fill="#F5F5F5"/>
<path id="Vector_2" d="M8.84717 19.5H11.3749V22.75H8.84717V19.5ZM8.84717 26H11.3749V29.25H8.84717V26ZM13.9027 19.5H16.4305V22.75H13.9027V19.5ZM8.84717 9.75H21.4861V16.25H8.84717V9.75ZM13.9027 26H16.4305V29.25H13.9027V26ZM18.9583 19.5H21.4861V29.25H18.9583V19.5Z" fill="#F5F5F5"/>
</g>
</svg>
